<?xml version="1.0" encoding="utf-8"?>
<!-- Generator: Adobe Illustrator 16.0.0, SVG Export Plug-In . SVG Version: 6.00 Build 0)  -->
<!DOCTYPE svg PUBLIC "-//W3C//DTD SVG 1.1//EN" "http://www.w3.org/Graphics/SVG/1.1/DTD/svg11.dtd">
<svg version="1.1" id="Calque_1" xmlns="http://www.w3.org/2000/svg" xmlns:xlink="http://www.w3.org/1999/xlink" x="0px" y="0px"
	 width="432px" height="432px" viewBox="0 0 432 432" enable-background="new 0 0 432 432" xml:space="preserve">
<g>
	<g>
		<path fill="#1D1D1B" d="M167.732,130.651c-0.549-1.568-1.319-3.14-1.979-4.566c-0.222-0.858-0.551-1.428-1.103-2.141
			c-0.878-1.285-1.979-2.427-3.188-3.14c-3.082-2.142-6.381-2.998-9.68-2.998c-3.631,0.285-7.15,1.142-10.671,2.712
			c-0.331,0.286-0.771,0.428-1.319,0.571c-1.872,0.143-3.631,1.57-5.281,2.712c-0.218,0.286-0.55,0.856-0.77,1.285
			c-0.439,0.571-0.329,1.569,0.22,1.997c0.439,0.145,0.771,0.428,1.319,0.572c0.55,0,1.21,0,1.869-0.287
			c1.102-0.141,1.982-0.286,2.86-0.57c0.553,0.57,0.441,1.285,0.553,1.998c-0.222,0.998-0.331,2.142-0.331,3.282
			c-0.329,4.71-0.771,9.419-1.1,13.987c-0.11,3.283-0.441,6.564-0.552,9.847c-0.107,6.852-0.107,13.56,0,20.267
			c-0.107,6.566-0.107,14.416,0.441,21.123l-0.221,2.711c-4.4,1.57-3.74,5.995-0.659,5.281c1.209-0.428,2.31-0.144,3.52,0.143
			c1.209,0.286,2.421,0.427,3.52,0.571c0.881,0,1.869-0.144,2.639-0.285c1.431-0.286,2.201-1.999,1.321-3.854
			c-0.329-0.713-0.878-0.285-1.321-0.856c-0.549-0.286-0.987-0.571-1.319-0.571c-0.11-2.854-0.11-7.137-0.22-9.705v-8.85
			c0.109-3.996-0.108-7.707-0.329-11.702c0-0.286,0-0.428-0.11-0.572h0.221c1.099-0.141,6.599-1.855,7.811-2.283
			c1.209-0.714,2.529-1.141,3.849-1.711c0.441,0,0.88-0.286,1.43-0.571c3.302-1.855,6.051-4.996,8.359-9.135
			c1.981-3.567,2.643-7.563,2.643-11.846c0-3.853-0.661-7.564-1.651-11.132C168.393,132.222,168.172,131.367,167.732,130.651z
			 M164.762,144.64c-0.11,2.853-0.881,5.28-2.2,7.707c-2.528,4.852-5.938,7.849-10.007,9.276c-0.881,0.571-1.763,0.857-2.643,1.285
			c-0.66,0.143-1.209,0.428-1.647,0.571c-1.431,0.143-2.201-0.713-2.201-2.854c0.438-7.135,0.438-31.827,0.55-35.68
			c0-0.286-0.111-0.713-0.111-1.142c0.55-0.286,0.992-0.713,1.541-0.713c2.312-0.571,4.619-0.856,6.93-0.714
			c1.209,0.143,2.311,0.428,3.409,1.285c0.881,0.571,1.541,0.999,1.979,1.856c1.762,2.854,3.191,5.852,3.852,9.705
			C164.651,138.216,164.872,141.356,164.762,144.64z"/>
		<path fill="#1D1D1B" d="M213.164,116.269c-1.759-0.146-9.68,1.62-10.34,1.915c-0.221,0-0.55,0.588-0.66,0.735
			c-0.109,0.295,0.11,0.885,0.329,1.032c0.552,0.59,1.102,0.883,1.651,1.473c0.881,0.588,1.43,0,1.54,1.177
			c-0.221,6.773,0,13.105-0.221,17.816c0,1.032-0.111,1.915,0,2.799c0.221,7.656,0,15.313-1.1,22.97
			c-0.77,6.037-2.642,19.731-5.392,25.179c-4.29,8.541-11.658,12.662-13.858,3.092c-1.1-4.417-1.651-9.129-1.759-13.989
			c0-3.386-0.11-6.92-0.331-10.308c-0.221-3.386-0.221-6.92,0-10.306c0.11-4.565,0.11-8.835-0.11-13.399
			c0-4.27-0.219-8.542-0.549-12.665c-0.111-3.091,0.549-5.3,1.649-7.803l0.551-1.177c0.987-1.915,0.77-3.387-1.103-4.124
			c-0.218,0-0.438,0-0.659-0.146c-0.878-0.148-6.709-0.148-8.25,0.293c-0.327,0.148-0.659,0.441-0.88,0.59
			c-0.55,0.147-0.771,1.177-0.439,1.765c0.329,1.178,0.771,2.356,1.87,2.505c1.43,0.588,1.649,2.061,1.761,3.975
			c-0.111,2.357-0.221,4.711-0.111,7.068l-0.33,17.08c-0.108,2.355-0.108,4.565-0.108,6.774c-0.221,4.563-0.221,8.981-0.11,13.251
			c0.219,7.657,1.541,15.02,4.07,21.646c1.208,3.68,2.749,6.918,4.839,9.57c10.339,13.105,22.001-10.75,23.541-16.933
			c1.538-5.153,3.078-10.308,3.628-15.755c0.33-2.062,0.77-4.418,0.99-6.479c0.221-1.325,0.221-2.65,0.332-3.976
			c0.218-3.533,1.319-33.573,1.098-37.104c-0.109-1.768,0.332-3.24,1.1-3.387c0.662-0.148,0.771-1.178,1.212-1.915
			C218.334,116.71,215.913,116.563,213.164,116.269z"/>
		<path fill="#1D1D1B" d="M244.846,150.425c-1.759-1.416-3.52-2.831-5.828-3.656c-1.213-0.354-2.421-1.061-3.63-1.887
			c-0.771-1.298-1.762-2.478-2.861-3.774c-0.109-0.354-0.441-0.708-0.441-0.943c-0.328-1.063-1.098-2.478-1.319-3.658
			c-0.66-2.359-0.438-4.835,0.66-7.43c0.659-2.241,5.171-6.724,9.9-6.015c0.552,0.117,1.212,0.588,1.539,0.707l2.312,2.595
			c0.881,1.062,1.759,5.19,2.09,5.426c1.869,0.354,2.529,0.354,3.741-1.179l-1.212-3.893c0,0-0.219-0.119-0.219-0.354
			c-0.659-1.415-1.54-2.595-2.09-3.42c-7.039-7.903-13.313-7.667-19.471-1.298c-0.551,0.708-1.21,1.298-1.648,1.77
			c-1.651,1.18-2.642,6.017-2.642,6.841c-0.439,3.54-2.309,9.319,5.939,17.223c0.771,0.707,2.091,1.18,2.86,1.886
			c0.771,0.59,1.541,1.062,2.091,1.534c1.868,1.533,3.631,2.949,5.278,4.6c0.66,0.472,1.102,1.18,1.431,1.888
			c1.319,2.005,1.871,4.01,2.642,6.604c0.438,1.415,0.438,3.066,0.438,4.836c-0.221,2.832-1.098,5.545-1.541,8.257
			c-0.549,2.949-1.868,5.425-3.409,7.785c-0.549,1.063-1.319,1.771-2.089,2.714c-0.55,0.589-1.21,0.825-2.201,0.589
			c-1.099-0.354-2.2-0.589-3.299-1.415c-3.409-2.595-5.499-10.027-5.281-16.159c0-0.473,0.441-0.827,0.549-1.181
			c0.442-1.18,0.331-1.77-0.988-2.241c-0.331,0-0.771-0.236-1.209-0.119c-1.43,0.119-3.191,0.354-4.842,0.589
			c-0.218,0-0.988,0.354-1.319,0.59c-0.329,0.237-0.329,1.298,0,1.534c0.22,0.118,0.551,0.354,1.102,0.473
			c0.218,0.236,0.88,0.471,1.319,0.471c0,0.471,0,0.825-0.111,0.944c-0.22,1.18-0.22,2.124-0.11,3.302c0.11,0.826,0,2.007,0,3.186
			c0,0.353-0.109,0.824,0.11,1.062c0.332,3.185,1.763,6.84,4.29,8.845c5.061,4.483,11.88,4.837,16.392,2.124
			c3.078-1.534,5.278-4.129,7.039-7.078c0.878-1.532,1.541-3.537,2.09-5.425c0.988-3.42,1.21-6.724,1.21-10.262
			c0-2.595-0.439-5.073-1.319-7.431C249.685,156.206,247.926,153.021,244.846,150.425z"/>
		<path fill="#1D1D1B" d="M297.209,118.145c-1.541-0.249-3.081-0.624-4.622-0.624c-1.43-0.374-2.86-0.374-4.069-0.374
			s-2.311,0.374-3.299,0.5c-0.331,0.125-0.441,0.873-0.222,0.998c0.881,0.998,1.759,1.745,2.751,2.494v2.993
			c-0.111,2.621-0.111,5.489-0.332,8.108c-0.107,2.619-0.768,8.98-0.988,11.725c-0.221,1.497-0.66,1.996-2.311,2.245h-0.55
			c-4.95,0.125-5.609,0.25-10.449,0.749h-0.881c-1.54,0-3.188,0.125-4.618,0.125c-0.553,0-0.991-0.25-1.212-0.125
			c-0.219-0.374-0.219-0.498-0.219-0.623c0.219-2.994,0.549-9.604,0.439-12.348c-0.11-1.373,0-2.37,0-3.742
			c0-2.494,0.66-5.363,0.438-8.108c0.66,0,1.872-0.373,2.531-0.498c0.55-0.125,2.419-1.249,2.529-1.996
			c0.222-0.375-0.218-0.873-1.209-1.249c-1.102-0.375-2.311-0.873-3.52-0.498c-1.651,0.749-3.41,0.749-5.171,0.498
			c-0.55,0-1.21-0.124-1.98-0.124c-0.549,0-0.99,0.124-1.539,0.25c-0.879,0.25-1.759,0.874-1.759,1.248
			c0.11,0.748,0.659,0.998,1.208,1.371c1.1,0.625,1.541,1.497,1.431,2.744c0,0.498,0.11,0.874,0,1.372
			c-0.221,3.991-0.331,7.982-0.66,12.099c-0.771,10.227-1.209,16.588-1.099,19.333c0.218,5.862-0.552,11.6-0.331,17.462
			c0.11,2.994,0.221,6.236,0.11,9.48c0,2.12,0.11,4.613,0.988,6.735c0.111,0.374,0,0.748,0,1.247
			c-0.768,0.375-1.647,0.499-2.308,0.749c-0.66,0.25-1.212,0.748-1.103,1.247c0.332,0.749,0.992,0.749,1.431,0.749
			c2.859,0.124,5.61,0.499,8.581,0.624c1.319,0,2.09-0.998,2.749-2.121c-0.881-1.372-2.529-0.873-3.849-2.121
			c0.107-0.624,0.107-1.247,0.438-1.996c0.439-1.871,0.661-4.116,0.439-6.236l0.111-9.229c0.11-2.371,0.11-4.616,0.11-7.11
			l0.331-7.11c0-2.245,0.328-4.366,0.439-6.486c0.22-1.746-0.222,0.125,0-1.372c0-0.249,0.109-0.374,0.22-0.499
			c0-0.125,0.219-0.125,0.329-0.125c2.971-0.375,5.831-0.499,8.911-0.748h7.479c0.66,0,1.21,0.124,1.98,0.124
			c0.438,0.125,0.659,0.5,0.771,0.998c0,0.249,0,0.749,0.109,1.123c-0.331,3.118-0.109,2.37-0.221,5.364
			c-0.11,1.496-0.221,2.744-0.221,4.115l-0.329,12.722c0.11,5.489-0.438,10.478,0.661,15.841c0,0.125-0.111,0.374-0.222,0.624
			c-0.218,0.125-0.439,0.125-0.659,0.125c-0.439,0.249-0.989,0.5-0.881,1.123c0.11,0.498,0.552,0.748,0.881,0.873
			c0.11,0.125,0.33,0.125,0.441,0.249c2.418,0.624,4.839,0.375,7.258,0.25c0.881-0.125,1.762-0.5,2.75-0.749
			c0.331-0.125,0.441-0.5,0.66-0.624c0.109-0.375,0.109-1.123-0.107-1.123c-0.553,0-0.882-0.249-1.323-0.375
			c-1.099-0.124-2.09-0.124-3.188-0.124c0-0.999,0.22-1.747,0.11-2.62c0-6.236,0.66-12.098,0.438-18.335
			c0-0.998,0.11-2.12,0.222-3.493c0.22-3.741,0.549-7.483,0.88-11.351c0.11-1.621-0.331,0.624-0.109-0.998
			c0.438-3.492,0.988-6.86,0.988-10.228c0-1.123,0.441-6.112,0.551-7.234c0.219-3.867,0.661-7.982,0.439-11.975
			c0-0.873-0.11-1.996,0.439-2.743l2.421-0.999c0.329-0.124,0.439-0.622,0.881-0.997
			C297.977,118.893,297.647,118.394,297.209,118.145z"/>
	</g>
	<g>
		<path fill="#1D1D1B" d="M100.804,214.283c-0.91-0.182-1.818,0.032-2.726,0.637c-0.907,0.607-1.608,1.635-2.09,3.087
			c-1.091,2.788-2.303,5.996-3.633,9.628c-1.334,3.633-2.667,6.721-3.997,9.264c-0.969,1.817-2.152,3.361-3.542,4.632
			c-1.395,1.272-2.695,1.998-3.904,2.18c-1.212,0.182-2.244-0.3-3.09-1.453c-0.848-1.15-1.271-3.239-1.271-6.267
			c0-2.06,0.331-4.239,0.999-6.541c0.663-2.299,1.117-3.997,1.362-5.086c0.24-1.332,0-2.481-0.727-3.453
			c-0.727-0.967-1.607-1.572-2.634-1.817c-1.032-0.241-2.061-0.118-3.09,0.364c-1.03,0.486-1.726,1.516-2.089,3.089
			c-0.606,2.424-1.088,4.814-1.452,7.174c-0.363,2.362-0.481,4.633-0.363,6.813c0.121,3.633,0.999,6.602,2.634,8.902
			c1.635,2.301,3.601,3.815,5.903,4.541c2.3,0.728,4.691,0.668,7.175-0.182c2.482-0.846,4.635-2.603,6.45-5.268
			c0.606-0.846,1.149-1.755,1.635-2.724c0.481-0.968,1.028-2.059,1.635-3.271c-0.243,3.029-0.485,5.967-0.728,8.811
			c-0.242,2.847-0.606,5.482-1.088,7.903c-0.973,5.57-2.244,11.535-3.816,17.893c-1.575,6.357-3.515,12.262-5.812,17.712
			c-2.303,5.449-4.938,9.96-7.905,13.534c-2.967,3.57-6.385,5.358-10.264,5.358c-2.296,0-3.843-1.212-4.632-3.633
			c-0.786-2.424-0.815-4.723-0.089-6.903c0.849-2.424,2.483-4.422,4.904-5.995c1.091-0.607,1.789-1.363,2.09-2.27
			c0.302-0.909,0.334-1.726,0.089-2.454c-0.239-0.726-0.728-1.24-1.451-1.543c-0.728-0.301-1.696-0.091-2.908,0.636
			c-1.934,1.209-3.51,2.633-4.722,4.268c-1.21,1.635-2.119,3.361-2.726,5.178c-0.727,2.058-1.028,4.207-0.907,6.449
			c0.12,2.24,0.605,4.269,1.451,6.085c0.849,1.817,2.031,3.299,3.545,4.452c1.513,1.149,3.298,1.725,5.355,1.725
			c4.481,0,8.54-1.665,12.174-4.996c3.633-3.331,6.87-7.691,9.717-13.079c2.847-5.391,5.297-11.535,7.357-18.438
			c2.058-6.903,3.784-13.896,5.18-20.983c1.389-7.084,2.51-13.986,3.36-20.708c0.846-6.721,1.452-12.563,1.815-17.53
			c0.118-1.695-0.153-3.025-0.816-3.997C102.497,215.041,101.711,214.464,100.804,214.283z"/>
		<path fill="#1D1D1B" d="M238.006,208.123c0.846-0.664,1.331-1.572,1.451-2.724c0.121-1.15-0.12-2.331-0.727-3.543
			c-0.605-1.209-1.815-2.117-3.634-2.726c-2.786-0.846-5.238-0.664-7.354,0.545c-2.122,1.212-3.996,3.028-5.631,5.45
			c-1.639,2.425-3.122,5.3-4.452,8.628c-1.333,3.333-2.607,6.694-3.816,10.083c0.364-3.271,0.665-6.268,0.91-8.992
			c0.24-2.726,0.423-4.874,0.544-6.449c0.119-0.845-0.212-1.544-0.999-2.09c-0.789-0.544-1.667-0.877-2.634-1
			c-0.97-0.118-1.906,0.031-2.817,0.456c-0.907,0.426-1.424,1.061-1.543,1.907c-0.869,4.737-1.554,9.388-2.087,13.97
			c-1.053,2.345-2.023,4.489-2.906,6.432c-0.91,1.997-2.09,4.148-3.543,6.449c-1.816,2.906-3.696,5.45-5.633,7.63
			c-1.936,2.18-3.662,3.633-5.176,4.359c-1.516,0.727-2.787,0.576-3.815-0.454c-1.029-1.027-1.544-3.361-1.544-6.994
			c0-1.694,0.092-3.18,0.271-4.451c0.184-1.271,0.423-2.511,0.729-3.723c0.301-1.209,0.665-2.454,1.09-3.725
			c0.423-1.271,0.816-2.754,1.18-4.45c0.364-1.332,0.183-2.482-0.544-3.452c-0.727-0.968-1.635-1.573-2.726-1.817
			c-1.091-0.242-2.151-0.119-3.178,0.362c-1.032,0.486-1.727,1.517-2.09,3.089l-0.181,0.726l-0.363,0.545
			c-1.699,4.24-3.697,8.388-5.995,12.443c-2.303,4.059-4.481,7.207-6.542,9.446c-2.06,2.242-3.813,3.151-5.268,2.725
			c-1.451-0.422-2.178-2.997-2.178-7.721c0-3.39,0.661-7.326,1.997-11.809c1.331-4.479,2.362-8.719,3.09-12.716
			c0.239-1.332,0-2.48-0.728-3.451c-0.728-0.968-1.607-1.573-2.634-1.817c-1.031-0.241-2.063-0.12-3.089,0.363
			c-1.032,0.485-1.727,1.515-2.09,3.088c-0.421,1.757-0.956,4.033-1.605,6.8l-16.014,0.647c-0.728-0.118-1.424,0.123-2.09,0.728
			c-0.668,0.607-1.12,1.515-1.363,2.724c-0.362,3.515-0.906,6.935-1.635,10.264c-0.727,3.333-1.542,6.358-2.452,9.084
			c-0.908,2.724-1.999,5.086-3.27,7.084c-1.272,1.999-2.635,3.361-4.086,4.087c-1.336,0.85-2.335,0.85-2.997,0
			c-0.668-0.846-1.091-2.179-1.274-3.995c-0.181-1.818-0.089-3.997,0.274-6.54c0.364-2.544,0.876-5.056,1.544-7.54
			c0.665-2.481,1.48-4.842,2.453-7.084c0.967-2.239,2.057-3.966,3.269-5.177c1.21-1.331,2.363-2.18,3.451-2.543
			c1.091-0.363,1.998-0.545,2.726-0.545c0.727,0,1.271,0.062,1.635,0.182c0.362,0.121,0.481,0,0.362-0.363
			c-0.121-0.364-0.575-0.728-1.362-1.091c-0.789-0.362-1.664-0.664-2.634-0.907c-0.969-0.241-1.998-0.423-3.089-0.545
			c-1.089-0.119-1.998-0.119-2.724,0c-3.514,0.607-6.328,2.211-8.447,4.814c-2.117,2.605-3.634,5.695-4.541,9.265
			c-0.907,3.574-1.271,7.298-1.091,11.172c0.184,3.878,0.88,7.266,2.09,10.173c1.212,2.906,2.877,5.058,4.995,6.449
			c2.118,1.394,4.633,1.362,7.539-0.09c2.179-1.091,4.147-3.025,5.903-5.813c1.756-2.785,3.299-5.874,4.633-9.266
			c1.333-3.388,2.361-6.78,3.088-10.172c0.728-3.39,1.21-6.236,1.455-8.539l12.281-0.428c-0.833,3.971-1.398,7.9-1.656,11.782
			c-0.303,4.541,0.183,8.51,1.453,11.898c1.272,3.392,3.965,5.086,8.083,5.086c3.026,0,5.782-1.149,8.268-3.452
			c2.48-2.298,4.872-5.388,7.175-9.264c0.118,3.515,0.907,6.511,2.361,8.992c1.452,2.483,4.115,3.724,7.994,3.724
			c3.508,0,6.932-1.512,10.264-4.541c3.328-3.025,6.509-7.145,9.536-12.353c0.023-0.041,0.042-0.083,0.064-0.124
			c-0.251,4.111-0.466,16.7-0.611,20.809c0,0.971,0.363,1.789,1.091,2.452c0.727,0.668,1.572,1.091,2.542,1.273
			c0.97,0.182,1.877,0.09,2.726-0.273c0.846-0.362,1.33-1.089,1.454-2.179c0.118-0.728,0.21-1.545,0.272-2.454
			c0.059-0.907,1.11-14.239,3.987-22.083c1.808-4.928,3.096-7.923,5.093-12.283c1.999-4.359,4.24-8.022,6.723-10.989
			c2.48-2.967,5.115-3.966,7.901-2.998C236.188,208.94,237.158,208.791,238.006,208.123z"/>
		<path fill="#1D1D1B" d="M263.946,212.394c0.118-2.544-0.576-4.934-2.09-7.176c-1.517-2.239-3.423-3.42-5.723-3.542
			c-3.754-0.363-6.752,0.849-8.992,3.634c-2.241,2.787-3.846,6.267-4.813,10.445c-0.97,4.179-1.363,8.568-1.183,13.17
			c0.183,4.604,0.877,8.539,2.089,11.808c-3.387,2.062-5.902,4.937-7.537,8.629c-1.635,3.696-2.454,7.388-2.454,11.082
			c0,3.695,0.881,6.875,2.635,9.537c1.756,2.662,4.33,3.935,7.721,3.815c3.512-0.123,5.995-1.422,7.447-3.906
			c1.453-2.481,2.272-5.359,2.452-8.628c0.182-3.271-0.062-6.6-0.727-9.992c-0.665-3.389-1.242-6.177-1.726-8.357
			c1.453-0.604,2.604-0.907,3.452-0.907c0.728,0,1.301-0.333,1.726-1c0.423-0.665,0.637-1.391,0.637-2.18
			c0-0.787-0.214-1.483-0.637-2.09c-0.425-0.604-1.061-0.845-1.906-0.726c-0.609,0-1.303,0.09-2.09,0.272
			c-0.789,0.181-1.483,0.395-2.09,0.635c-0.245-1.089-0.364-2.906-0.364-5.45s0.119-5.268,0.364-8.175
			c0.242-2.906,0.665-5.691,1.271-8.356c0.606-2.664,1.394-4.66,2.362-5.995c1.091-1.453,2.208-1.663,3.361-0.636
			c1.149,1.03,1.665,2.333,1.543,3.905c0,0.849,0.243,1.516,0.728,1.998c0.482,0.486,1.058,0.727,1.726,0.727
			c0.665,0,1.301-0.182,1.907-0.545C263.642,214.029,263.946,213.365,263.946,212.394z M246.869,264.167
			c-0.484,2.061-1.635,3.21-3.452,3.452c-2.058,0.245-3.451-0.513-4.178-2.271c-0.727-1.754-0.999-3.843-0.819-6.267
			c0.184-2.422,0.819-4.875,1.91-7.358c1.088-2.481,2.543-4.389,4.36-5.722c0.118,0.485,0.482,1.848,1.088,4.087
			c0.606,2.242,1.059,4.632,1.363,7.176C247.443,259.807,247.352,262.109,246.869,264.167z"/>
		<path fill="#1D1D1B" d="M377.826,218.407c-0.304-0.787-0.727-1.332-1.271-1.635c-0.545-0.3-1.183-0.3-1.907,0
			c-0.728,0.303-1.336,0.999-1.818,2.088c-0.245,0.486-0.518,1.032-0.816,1.636c-0.304,0.607-0.575,1.211-0.818,1.816
			c-1.814,3.876-3.391,7.084-4.724,9.628c-1.333,2.542-2.755,4.935-4.269,7.175c-1.517,2.243-3.27,4.514-5.268,6.812
			c-1.998,2.303-4.514,5.087-7.538,8.357c-0.848,0.971-1.667,1.848-2.454,2.634c-0.789,0.789-1.543,1.606-2.27,2.452
			c0.727-8.112,1.726-16.559,2.997-25.342c1.271-8.78,2.514-16.832,3.726-24.16c1.208-7.327,2.27-13.443,3.177-18.348
			c0.908-4.904,1.422-7.54,1.543-7.902c0.243-1.455-0.029-2.603-0.815-3.453c-0.789-0.846-1.756-1.361-2.906-1.543
			c-1.152-0.181-2.271,0.062-3.361,0.726c-1.09,0.668-1.758,1.908-1.998,3.725c-0.972,6.298-2.182,14.019-3.633,23.161
			c-0.894,5.619-1.772,11.338-2.643,17.138c-0.527,1.117-1.126,2.405-1.809,3.898c-1.271,2.778-2.727,5.837-4.361,9.18
			c-1.635,3.345-3.36,6.745-5.176,10.2c-1.817,3.459-3.573,6.546-5.268,9.266c-1.699,2.72-3.334,4.93-4.907,6.63
			c-1.575,1.699-2.847,2.439-3.813,2.209c-1.091-0.225-1.848-1.131-2.271-2.72c-0.425-1.585-0.635-3.512-0.635-5.78
			c0-1.701,0.299-4.817,0.907-9.35c0.604-4.533,1.33-9.747,2.178-15.641c0.847-5.892,1.818-12.155,2.909-18.786
			c1.089-6.631,2.117-13.007,3.087-19.126c0.97-6.12,1.877-11.645,2.726-16.576c0.846-4.929,1.514-8.584,1.998-10.965
			c0.242-1.472-0.033-2.635-0.816-3.485c-0.789-0.849-1.726-1.359-2.816-1.531c-1.091-0.169-2.152,0.059-3.178,0.682
			c-1.032,0.624-1.668,1.672-1.91,3.146c-0.484,2.492-1.152,6.092-1.999,10.795c-0.848,4.704-1.755,9.974-2.722,15.809
			c-0.973,5.838-1.939,11.93-2.909,18.277c-0.504,3.288-0.977,6.516-1.43,9.698c-0.188,0.398-0.377,0.821-0.565,1.292
			c-0.242,0.607-0.544,1.211-0.907,1.816c-1.334,2.906-3.303,6.239-5.904,9.99c-2.606,3.755-5.512,7.389-8.72,10.9
			c-3.211,3.513-6.512,6.57-9.9,9.173c-3.393,2.605-6.479,4.088-9.264,4.452c-1.819,0.244-3.148-0.301-3.998-1.636
			c-0.727-1.208-1.058-2.844-0.998-4.904c0.062-2.058,0.454-4.269,1.18-6.63c0.727-2.362,1.698-4.842,2.908-7.448
			c1.209-2.603,2.542-5.178,3.997-7.721c2.178,1.817,4.6,2.815,7.266,2.998c2.66,0.182,5.176-0.363,7.538-1.635
			s4.328-3.116,5.904-5.54c1.572-2.423,2.299-5.27,2.181-8.539c0-2.907-0.819-5.114-2.454-6.63
			c-1.634-1.513-3.664-2.331-6.086-2.452c-3.512-0.12-7.024,1.061-10.536,3.542c-3.514,2.484-6.63,5.664-9.355,9.538
			c-2.726,3.876-4.904,8.206-6.539,12.989c-1.635,4.786-2.453,9.418-2.453,13.896c0,2.18,0.245,4.3,0.727,6.358
			c0.485,2.061,1.212,3.877,2.182,5.45c0.97,1.576,2.241,2.788,3.813,3.633c1.576,0.848,3.391,1.089,5.451,0.727
			c3.148-0.483,6.568-2.059,10.264-4.724c3.692-2.662,7.293-5.813,10.808-9.446c3.512-3.633,6.722-7.54,9.628-11.718
			c0.659-0.947,1.276-1.876,1.874-2.795c-0.406,3.562-0.735,6.928-0.97,10.046c-0.36,4.875-0.481,8.728-0.36,11.559
			c0.242,3.741,1.18,7.17,2.814,10.287c1.635,3.119,4.088,4.675,7.357,4.675c1.573,0,3.329-0.906,5.268-2.72
			c1.937-1.813,3.905-4.165,5.904-7.056c1.997-2.89,3.996-6.147,5.994-9.774c1.988-3.609,3.887-7.16,5.694-10.659
			c-1.002,7.465-1.846,14.729-2.514,21.78c-0.845,8.964-1.15,16.409-0.91,22.344c0.245,5.569,1.546,10.233,3.907,13.988
			c2.363,3.753,5.659,5.631,9.9,5.631c2.906-0.123,5.088-1.334,6.539-3.633c1.454-2.303,2.3-5.027,2.545-8.175
			c0.119-2.301-0.063-4.694-0.547-7.176c-0.484-2.483-1.271-4.814-2.361-6.994c-1.088-2.179-2.513-4.059-4.269-5.632
			c-1.756-1.571-3.786-2.48-6.087-2.724h-0.544c0.243-0.968,1.183-2.452,2.817-4.45s3.659-4.27,6.083-6.812
			c2.909-3.026,5.419-5.813,7.541-8.357c2.116-2.543,4.024-5.055,5.72-7.54c1.697-2.48,3.3-5.115,4.815-7.902
			c1.515-2.784,3.117-5.995,4.813-9.628c0.242-0.727,0.547-1.422,0.91-2.088c0.364-0.665,0.663-1.301,0.908-1.908
			C378.036,220.133,378.128,219.196,377.826,218.407z M285.727,215.863c1.997-2.117,3.662-3.178,4.995-3.178
			s2.208,0.485,2.634,1.453c0.423,0.971,0.515,2.089,0.274,3.361c-0.245,1.271-0.818,2.573-1.726,3.905
			c-0.908,1.334-1.999,2.424-3.27,3.269c-1.273,0.85-2.698,1.273-4.271,1.273c-1.572,0-3.211-0.728-4.904-2.18
			C281.641,220.617,283.728,217.984,285.727,215.863z M350.305,280.443c1.454,2.422,2.271,4.935,2.454,7.54
			c0.18,2.603-0.124,4.932-0.911,6.994c-0.789,2.058-1.848,3.147-3.178,3.27c-2.182,0.119-3.633-1.939-4.36-6.177
			c-0.727-4.24-0.97-9.749-0.727-16.53C346.609,276.384,348.851,278.019,350.305,280.443z"/>
	</g>
	<path fill="#CB7B26" d="M311.551,297.908c-0.707-5.163-4.318-8.377-9.171-9.741c-2.482-0.698-5.004-0.607-7.495-1.079
		c-2.817-0.536-2.819-4.868-3.986-7.362c-2.756-5.897-8.968-9.105-15.453-7.609c-5.931,1.368-10.643,6.899-11.052,12.969
		c-0.184,2.721,0.478,5.584,2.262,7.649c2.336,2.699,6.228,3.619,9.774,3.222c3.545-0.396,6.855-1.921,10.093-3.423
		c-3.05,4.052-5.763,7.492-10.293,9.968c-3.932,2.148-8.305,3.501-12.709,4.271c-13.225,2.315-26.001-6.232-35.246-14.824
		c-2.165-2.01-4.247-4.209-4.954-7.118c-0.563-2.327-0.994-4.495-2.19-6.65c-2.3-4.138-6.159-6.868-10.73-7.993
		c-14.564-3.581-26.963,1.958-37.094,11.753c-9.835,9.509-19.976,16.93-34.471,15.306c-10.25-1.147-18.197-9.783-11.979-20.021
		c1.815-2.991,5.053-5.417,8.391-6.444c2.354-0.729,4.979-0.729,7.228,0.281c2.246,1.01,4.053,3.098,4.446,5.532
		c0.934,5.73-6.287,9.778-10.761,6.148c-0.945-0.766-2.196-2.927-3.675-2.387c-0.417,0.15-0.698,0.472-0.883,0.874
		c-0.359,0.777-0.344,1.85-0.194,2.508c0.521,2.32,3.142,4.69,5.378,5.188c5.266,1.177,10.047,0.503,13.606-4.057
		c2.494-3.196,3.232-6.8,1.521-10.52c-0.039-0.078-0.076-0.16-0.114-0.239c-4.087-8.492-14.977-9.718-22.521-5.416
		c-7.872,4.491-11.654,14.919-6.715,23.245c2.314,3.902,6.288,6.633,10.571,8.126c12.373,4.314,25.765,0.375,34.82-8.831
		c8.828-8.977,17.868-17.104,31.173-18.949c11.171-1.549,19.826,4.11,17.756,12.54c-5.302,0.315-11.193,1.864-14.715,6.136
		c-3.414,4.139-3.922,10.294,0.762,13.774c9.771,7.269,17.712-6.685,20.469-13.98c0.53,0.296,1.111,0.494,1.525,0.874
		c7.294,6.733,13.523,13.324,23.221,16.614c11.953,4.059,27.975,2.413,37.937-5.665c2.167-1.757,4.204-3.831,5.763-6.157
		c0.984-1.471,1.418-4.229,3.648-3.988c2.83,0.305,6.567,1.449,7.975,4.149c1.015,1.945,0.749,4.536-0.785,6.103
		c-1.098,1.121-2.946,1.661-4.472,1.203c-1.834-0.55-3.501-1.896-4.478,1.019c-0.943,2.832,2.081,5.405,4.471,6.098
		c2.424,0.7,5.196,0.257,7.373-0.985C309.727,307.654,312.2,302.641,311.551,297.908z M213.172,297.676
		c-1.45,1.81-3.603,3.202-5.924,3.167c-3.397-0.054-5.54-3.01-4.149-6.176c0.669-1.523,1.969-2.7,3.417-3.521
		c1.707-0.967,8.32-4.327,9.904-1.962c0.196,0.295,0.314,0.677,0.337,1.164C216.867,292.701,214.569,295.932,213.172,297.676z
		 M280.289,290.724c-1.636-0.975-2.217-2.213-1.759-3.933c0.277-1.039,0.89-1.907,1.96-1.654c0.612,0.146,1.434,1.078,1.459,1.686
		C282.011,288.246,282.188,289.933,280.289,290.724z M287.688,288.805c-0.472,0.69-1.478,1.616-2.407,1.479
		c-1.487-0.219-0.829-0.738-0.829-2c0-2.084-0.634-4.418-2.482-5.623c-2.501-1.631-5.2,0.951-5.979,3.352
		c-0.757,2.338-0.074,4.754,1.565,6.513c-1.674,2.121-5.873,0.454-7.344-1.188c-1.854-2.065-2.279-5.169-1.484-7.831
		c1.005-3.374,3.903-6.116,7.328-6.939c3.423-0.82,7.25,0.312,9.677,2.863c1.703,1.792,2.678,4.243,2.757,6.709
		C288.52,287.035,288.225,288.021,287.688,288.805z"/>
	<path fill="#CB7B26" d="M119.181,197.895c-1.307-0.922-2.496-2.114-3.574-3.573c-0.612-0.997-1.497-2.077-2.649-3.228
		c-0.768-1.074-2.152-2.381-4.151-3.918c-1.458-1.077-2.689-2.152-3.689-3.229c-1.15-1.226-2.149-1.843-2.996-1.843
		c-0.844,0-1.961,0.689-3.343,2.071c-3.766,3.769-7.107,7.726-10.029,11.875c-0.23,0.385-0.576,0.652-1.037,0.808l-2.767,0.114
		c-0.613,0.077-1.499,0.114-2.65,0.114c-1.459,0-2.538-0.114-3.229-0.345c-0.612-0.152-0.921-0.382-0.921-0.69
		c0-0.309,0.154-0.612,0.461-0.921c1.538-1.923,4.034-4.688,7.493-8.301c4.228-4.611,6.917-7.608,8.068-8.993
		c0.538-0.69,1.961-2.19,4.267-4.495l2.997-3.114c0.69-0.766,1.308-1.149,1.844-1.149c0.692,0,1.345,0.419,1.96,1.268
		c8.606,10.452,14.984,18.326,19.134,23.631c0.309,0.308,0.461,0.615,0.461,0.92c0,0.461-0.324,0.809-0.978,1.036
		c-0.653,0.233-1.057,0.389-1.21,0.461C120.641,197.396,119.489,197.895,119.181,197.895z M119.871,177.606
		c-0.844-0.384-1.631-0.844-2.362-1.381c-0.729-0.542-1.557-1.287-2.478-2.251c-0.922-0.96-1.614-1.672-2.074-2.132
		c-0.614-0.845-2.036-2.307-4.267-4.38c-1.689-1.385-2.883-2.498-3.574-3.343c-1.15-1.229-2.149-1.846-2.996-1.846
		c-0.844,0-1.961,0.692-3.343,2.078c-3.766,3.763-7.107,7.722-10.029,11.874c-0.383,0.537-0.729,0.807-1.037,0.807l-2.767,0.114
		c-0.613,0.077-1.499,0.115-2.65,0.115c-1.459,0-2.538-0.115-3.229-0.346c-0.612-0.152-0.921-0.382-0.921-0.689
		c0-0.31,0.154-0.617,0.461-0.926c1.538-1.918,4.034-4.684,7.493-8.297c4.228-4.614,6.917-7.607,8.068-8.993
		c0.538-0.69,1.961-2.19,4.267-4.493l2.997-3.116c0.69-0.765,1.308-1.154,1.844-1.154c0.692,0,1.345,0.423,1.96,1.269
		c8.606,10.452,14.984,18.331,19.134,23.63c0.309,0.389,0.461,0.731,0.461,1.04c0,0.46-0.305,0.789-0.921,0.981
		c-0.615,0.192-1.037,0.328-1.267,0.404c-0.309,0.229-0.751,0.461-1.325,0.69c-0.577,0.232-1.02,0.346-1.328,0.346H119.871z
		 M119.41,157.548c-1.229-0.921-2.266-1.824-3.11-2.706c-0.846-0.884-1.807-2.094-2.883-3.633c-0.69-0.922-1.596-1.882-2.709-2.882
		c-1.114-0.997-1.788-1.577-2.018-1.729c-1.689-1.383-2.883-2.459-3.574-3.229c-1.15-1.229-2.149-1.842-2.996-1.842
		c-0.766,0-1.883,0.655-3.343,1.96c-3.84,3.843-7.186,7.836-10.029,11.987c-0.304,0.461-0.651,0.692-1.037,0.692l-2.767,0.115
		c-0.613,0.076-1.499,0.114-2.65,0.114c-1.459,0-2.538-0.114-3.229-0.342c-0.612-0.157-0.921-0.385-0.921-0.693
		c0-0.305,0.154-0.613,0.461-0.92c1.845-2.307,4.381-5.073,7.608-8.301c4.227-4.611,6.879-7.57,7.953-8.876
		c0.924-1.154,2.497-2.844,4.727-5.072l2.537-2.539c0.69-0.766,1.308-1.151,1.844-1.151c0.692,0,1.345,0.424,1.96,1.268
		c8.606,10.453,14.984,18.292,19.134,23.517c0.309,0.384,0.461,0.73,0.461,1.036c0,0.46-0.324,0.807-0.978,1.039
		c-0.653,0.229-1.057,0.385-1.21,0.46c-0.231,0.076-0.751,0.385-1.557,0.922c-0.81,0.541-1.213,0.807-1.213,0.807
		S119.719,157.548,119.41,157.548z"/>
</g>
</svg>
